#!OML:ASF E:\VariousWalksJay\Project 1\Capture day 1\Session 1\Actor2.ASF
:FULLY-SPECIFIED
:DEGREES
1198
root -6.7036 16.8952 40.5401 5.13485 -23.4621 -5.75318
lowerback -2.91881 -0.165593 4.92925
upperback 1.96906 -0.438253 -0.250105
thorax 3.63648 -0.0916502 -3.05036
lowerneck -12.4187 -5.39451 -4.82392
upperneck 16.9295 -8.51894 10.3328
head 7.94173 -3.46328 3.28647
rclavicle 6.50026e-014 -3.18055e-015
rhumerus -31.209 0.189346 -84.885
rradius 27.7411
rwrist 0.906182
rhand -8.38104 -10.0799
rfingers 7.12502
rthumb 17.5422 -39.3085
lclavicle 6.50026e-014 -3.18055e-015
lhumerus -211.126 -177.029 259.731
lradius 27.1821
lwrist 6.1908
lhand -4.29266 -4.32996
lfingers 7.12502
lthumb 21.4729 24.4999
rfemur -11.8738 -5.06204 25.3829
rtibia 32.6309
rfoot -22.0937 -4.68186
rtoes 3.6883
lfemur -7.55244 3.6893 -16.3677
ltibia 27.3652
lfoot -22.4342 7.50056
ltoes -1.73991
1199
root -6.70193 16.895 40.5401 5.13034 -23.462 -5.74414
lowerback -2.92009 -0.165009 4.92847
upperback 1.96194 -0.437239 -0.251902
thorax 3.62988 -0.0914341 -3.0517
lowerneck -12.4189 -5.38705 -4.82208
upperneck 16.9295 -8.50921 10.3341
head 7.94094 -3.45842 3.28774
rclavicle -2.48481e-016 7.95139e-015
rhumerus -31.1729 0.200565 -84.9332
rradius 27.7505
rwrist 0.88694
rhand -8.37801 -10.0587
rfingers 7.12502
rthumb 17.5451 -39.287
lclavicle -2.48481e-016 7.95139e-015
lhumerus -211.07 -176.884 259.812
lradius 27.2971
lwrist 6.23422
lhand -4.3011 -4.33989
lfingers 7.12502
lthumb 21.4648 24.4909
rfemur -11.8799 -5.06073 25.3678
rtibia 32.64
rfoot -22.0942 -4.68001
rtoes 3.67529
lfemur -7.55128 3.69186 -16.3813
ltibia 27.3585
lfoot -22.4313 7.49623
ltoes -1.74055
1200
root -6.70027 16.8947 40.5407 5.12118 -23.4571 -5.7282
lowerback -2.92617 -0.166743 4.92568
upperback 1.95707 -0.439463 -0.256462
thorax 3.62804 -0.0926782 -3.05502
lowerneck -12.4243 -5.37975 -4.81602
upperneck 16.9356 -8.50027 10.3313
head 7.94279 -3.4537 3.28681
rclavicle 4.47762e-014 -2.38542e-015
rhumerus -31.1419 0.223004 -84.9839
rradius 27.7644
rwrist 0.865123
rhand -8.35498 -10.0238
rfingers 7.12502
rthumb 17.5673 -39.2502
lclavicle 4.47762e-014 -2.38542e-015
lhumerus -211.024 -176.745 259.891
lradius 27.4151
lwrist 6.26849
lhand -4.30914 -4.35359
lfingers 7.12502
lthumb 21.4571 24.4781
rfemur -11.8817 -5.07958 25.3426
rtibia 32.6507
rfoot -22.0969 -4.66285
rtoes 3.66048
lfemur -7.54424 3.69612 -16.4024
ltibia 27.3493
lfoot -22.4282 7.48821
ltoes -1.75022
1201
root -6.69872 16.8945 40.5412 5.11099 -23.4489 -5.71333
lowerback -2.92676 -0.171267 4.92206
upperback 1.95157 -0.445072 -0.260366
thorax 3.62213 -0.0957535 -3.05735
lowerneck -12.4335 -5.37198 -4.80681
upperneck 16.9464 -8.49107 10.3254
head 7.94657 -3.44869 3.28429
rclavicle -1.58531e-014 1.03368e-014
rhumerus -31.1185 0.260335 -85.0382
rradius 27.7861
rwrist 0.841044
rhand -8.31849 -9.99267
rfingers 7.12502
rthumb 17.6024 -39.2159
lclavicle -1.58531e-014 1.03368e-014
lhumerus -210.991 -176.62 259.966
lradius 27.5377
lwrist 6.28927
lhand -4.31545 -4.36809
lfingers 7.12502
lthumb 21.451 24.4643
rfemur -11.8818 -5.09652 25.32
rtibia 32.6612
rfoot -22.0995 -4.65214
rtoes 3.6386
lfemur -7.5367 3.69992 -16.4214
ltibia 27.3402
lfoot -22.4223 7.47931
ltoes -1.76158
1202
root -6.69734 16.8943 40.5417 5.09948 -23.4384 -5.69792
lowerback -2.92535 -0.177078 4.91713
upperback 1.94634 -0.452234 -0.264303
thorax 3.61524 -0.0996549 -3.05904
lowerneck -12.4457 -5.36556 -4.79516
upperneck 16.9603 -8.48376 10.3159
head 7.95178 -3.44456 3.27991
rclavicle 3.09607e-014 -1.51076e-014
rhumerus -31.0988 0.306778 -85.094
rradius 27.8103
rwrist 0.816294
rhand -8.2736 -9.96677
rfingers 7.12502
rthumb 17.6456 -39.1861
lclavicle 3.09607e-014 -1.51076e-014
lhumerus -210.969 -176.503 260.039
lradius 27.6654
lwrist 6.30354
lhand -4.324 -4.38888
lfingers 7.12502
lthumb 21.4428 24.4444
rfemur -11.88 -5.11108 25.2978
rtibia 32.6716
rfoot -22.1037 -4.64585
rtoes 3.62152
lfemur -7.52779 3.70397 -16.4402
ltibia 27.331
lfoot -22.4149 7.4698
ltoes -1.78494
1203
root -6.69606 16.894 40.5421 5.09026 -23.4259 -5.68784
lowerback -2.9214 -0.183369 4.91681
upperback 1.94115 -0.460157 -0.266849
thorax 3.60687 -0.103877 -3.0619
lowerneck -12.4561 -5.35989 -4.78337
upperneck 16.9711 -8.4772 10.3062
head 7.95572 -3.44093 3.27534
rclavicle -4.78077e-014 -3.97569e-015
rhumerus -31.0832 0.358254 -85.1492
rradius 27.8395
rwrist 0.794568
rhand -8.21415 -9.94374
rfingers 7.12502
rthumb 17.7028 -39.1579
lclavicle -4.78077e-014 -3.97569e-015
lhumerus -210.957 -176.39 260.112
lradius 27.7965
lwrist 6.31895
lhand -4.33473 -4.41089
lfingers 7.12502
lthumb 21.4325 24.4236
rfemur -11.8782 -5.12207 25.2827
rtibia 32.6803
rfoot -22.1076 -4.64502
rtoes 3.61287
lfemur -7.52095 3.70932 -16.4526
ltibia 27.324
lfoot -22.407 7.45715
ltoes -1.81144
1204
root -6.69497 16.8939 40.5425 5.08046 -23.4122 -5.67485
lowerback -2.9191 -0.190244 4.9133
upperback 1.9364 -0.468799 -0.269931
thorax 3.59985 -0.108487 -3.06359
lowerneck -12.4659 -5.35548 -4.76999
upperneck 16.9796 -8.47188 10.2937
head 7.9587 -3.43812 3.26943
rclavicle 4.82053e-015 -7.95139e-016
rhumerus -31.0697 0.410927 -85.2022
rradius 27.8689
rwrist 0.777776
rhand -8.14801 -9.91914
rfingers 7.12502
rthumb 17.7664 -39.1275
lclavicle 4.82053e-015 -7.95139e-016
lhumerus -210.955 -176.283 260.185
lradius 27.9313
lwrist 6.33549
lhand -4.34743 -4.43386
lfingers 7.12502
lthumb 21.4203 24.402
rfemur -11.8751 -5.13419 25.2651
rtibia 32.6872
rfoot -22.1111 -4.64462
rtoes 3.59992
lfemur -7.51526 3.71665 -16.4677
ltibia 27.3195
lfoot -22.3986 7.44408
ltoes -1.84729
1205
root -6.69414 16.8938 40.5428 5.07305 -23.3994 -5.66442
lowerback -2.91541 -0.196935 4.90913
upperback 1.93075 -0.477127 -0.271263
thorax 3.59114 -0.11304 -3.06305
lowerneck -12.4714 -5.35175 -4.75685
upperneck 16.9827 -8.46659 10.2792
head 7.95904 -3.4358 3.26294
rclavicle -9.14906e-014 4.77083e-015
rhumerus -31.0596 0.463161 -85.2516
rradius 27.9006
rwrist 0.767702
rhand -8.07825 -9.89841
rfingers 7.12502
rthumb 17.8335 -39.1007
lclavicle -9.14906e-014 4.77083e-015
lhumerus -210.964 -176.181 260.258
lradius 28.0687
lwrist 6.35552
lhand -4.35824 -4.45868
lfingers 7.12502
lthumb 21.4099 24.3784
rfemur -11.8728 -5.13643 25.2522
rtibia 32.6916
rfoot -22.1147 -4.65367
rtoes 3.59087
lfemur -7.51306 3.72119 -16.4796
ltibia 27.3181
lfoot -22.3927 7.43308
ltoes -1.88515
1206
root -6.69344 16.8937 40.5431 5.06998 -23.3871 -5.65978
lowerback -2.91416 -0.202884 4.91029
upperback 1.92594 -0.48492 -0.270965
thorax 3.58474 -0.117143 -3.06381
lowerneck -12.4763 -5.3491 -4.74336
upperneck 16.9794 -8.46215 10.2646
head 7.95719 -3.43405 3.25626
rclavicle 4.24405e-014 -1.03368e-014
rhumerus -31.0509 0.509654 -85.2964
rradius 27.9339
rwrist 0.763353
rhand -8.01054 -9.87874
rfingers 7.12502
rthumb 17.8987 -39.0751
lclavicle 4.24405e-014 -1.03368e-014
lhumerus -210.978 -176.074 260.334
lradius 28.2037
lwrist 6.38525
lhand -4.37095 -4.48207
lfingers 7.12502
lthumb 21.3977 24.3564
rfemur -11.8718 -5.13522 25.2462
rtibia 32.6941
rfoot -22.1176 -4.66539
rtoes 3.58563
lfemur -7.51459 3.72193 -16.4854
ltibia 27.3191
lfoot -22.3896 7.42351
ltoes -1.91443
1207
root -6.69293 16.8936 40.5436 5.06904 -23.377 -5.65752
lowerback -2.91407 -0.208119 4.91218
upperback 1.92082 -0.491917 -0.268727
thorax 3.57874 -0.120855 -3.06294
lowerneck -12.4799 -5.34702 -4.72881
upperneck 16.9729 -8.45727 10.2446
head 7.9537 -3.43264 3.24762
rclavicle -3.77194e-014 -9.54166e-015
rhumerus -31.0455 0.550919 -85.3349
rradius 27.9695
rwrist 0.763825
rhand -7.94702 -9.8757
rfingers 7.12502
rthumb 17.9598 -39.0665
lclavicle -3.77194e-014 -9.54166e-015
lhumerus -211 -175.972 260.413
lradius 28.336
lwrist 6.41584
lhand -4.38248 -4.50532
lfingers 7.12502
lthumb 21.3866 24.3344
rfemur -11.8706 -5.12985 25.2432
rtibia 32.6946
rfoot -22.1201 -4.67904
rtoes 3.57976
lfemur -7.51772 3.72111 -16.4888
ltibia 27.3226
lfoot -22.3892 7.41639
ltoes -1.93745
1208
root -6.69252 16.8936 40.5441 5.07104 -23.3681 -5.65687
lowerback -2.9166 -0.212638 4.91533
upperback 1.91584 -0.498205 -0.265321
thorax 3.57445 -0.124151 -3.06154
lowerneck -12.484 -5.34555 -4.71311
upperneck 16.9638 -8.4523 10.2204
head 7.94921 -3.43151 3.2374
rclavicle 4.45775e-014 -2.38542e-015
rhumerus -31.0424 0.58353 -85.3668
rradius 28.0065
rwrist 0.764909
rhand -7.88718 -9.86971
rfingers 7.12502
rthumb 18.0174 -39.0552
lclavicle 4.45775e-014 -2.38542e-015
lhumerus -211.026 -175.868 260.494
lradius 28.4619
lwrist 6.45219
lhand -4.38631 -4.52266
lfingers 7.12502
lthumb 21.383 24.3174
rfemur -11.8712 -5.12555 25.2419
rtibia 32.6939
rfoot -22.1228 -4.68917
rtoes 3.58004
lfemur -7.52368 3.7185 -16.4909
ltibia 27.3278
lfoot -22.39 7.41257
ltoes -1.96001
1209
root -6.69224 16.8935 40.5446 5.0747 -23.3618 -5.65791
lowerback -2.91868 -0.21641 4.91826
upperback 1.91072 -0.503523 -0.260009
thorax 3.56985 -0.127007 -3.05798
lowerneck -12.4899 -5.34407 -4.69673
upperneck 16.9532 -8.44639 10.1923
head 7.94423 -3.43024 3.22581
rclavicle -3.45885e-014 -7.95139e-015
rhumerus -31.0408 0.608915 -85.3923
rradius 28.0438
rwrist 0.763033
rhand -7.84345 -9.85385
rfingers 7.12502
rthumb 18.0595 -39.0354
lclavicle -3.45885e-014 -7.95139e-015
lhumerus -211.054 -175.765 260.578
lradius 28.5776
lwrist 6.4908
lhand -4.38319 -4.53831
lfingers 7.12502
lthumb 21.386 24.3015
rfemur -11.8727 -5.11426 25.2431
rtibia 32.6928
rfoot -22.1248 -4.70331
rtoes 3.57543
lfemur -7.53073 3.71414 -16.4914
ltibia 27.3336
lfoot -22.3914 7.4134
ltoes -1.97579
